<svg width="19" height="18" viewBox="0 0 19 18" fill="none" xmlns="http://www.w3.org/2000/svg">
<path d="M13.4583 1.5H5.54167C3.35554 1.5 1.58333 3.17893 1.58333 5.25V12.75C1.58333 14.8211 3.35554 16.5 5.54167 16.5H13.4583C15.6445 16.5 17.4167 14.8211 17.4167 12.75V5.25C17.4167 3.17893 15.6445 1.5 13.4583 1.5Z" stroke="#403F3F" stroke-width="2" stroke-linecap="round" stroke-linejoin="round"/>
<path d="M12.6667 8.5275C12.7644 9.15169 12.6518 9.78916 12.3451 10.3493C12.0383 10.9094 11.5529 11.3636 10.958 11.6473C10.363 11.931 9.68877 12.0297 9.03116 11.9295C8.37356 11.8292 7.76606 11.5351 7.29508 11.0889C6.8241 10.6427 6.51362 10.0672 6.4078 9.44416C6.30198 8.82117 6.40622 8.18242 6.70567 7.61878C7.00513 7.05514 7.48456 6.59531 8.07578 6.30468C8.66699 6.01406 9.33989 5.90744 9.99875 6C10.6708 6.09441 11.293 6.3911 11.7734 6.84623C12.2538 7.30136 12.567 7.89081 12.6667 8.5275Z" stroke="#403F3F" stroke-width="2" stroke-linecap="round" stroke-linejoin="round"/>
<path d="M13.8542 4.875H13.8629" stroke="#403F3F" stroke-width="2" stroke-linecap="round" stroke-linejoin="round"/>
</svg>
