<svg width="25" height="25" viewBox="0 0 25 25" fill="none" xmlns="http://www.w3.org/2000/svg">
<g opacity="0.8">
<path d="M6.18204 2.08754L3.11133 6.18182V20.5118C3.11133 21.0547 3.32701 21.5754 3.71092 21.9593C4.09483 22.3432 4.61553 22.5589 5.15847 22.5589H19.4884C20.0314 22.5589 20.5521 22.3432 20.936 21.9593C21.3199 21.5754 21.5356 21.0547 21.5356 20.5118V6.18182L18.4649 2.08754H6.18204Z" stroke="#195F34" stroke-width="2" stroke-linecap="round" stroke-linejoin="round"/>
<path d="M3.11133 6.18182H21.5356" stroke="#195F34" stroke-width="2" stroke-linecap="round" stroke-linejoin="round"/>
<path d="M16.4171 10.2761C16.4171 11.362 15.9857 12.4034 15.2179 13.1712C14.4501 13.939 13.4087 14.3704 12.3228 14.3704C11.2369 14.3704 10.1955 13.939 9.4277 13.1712C8.65988 12.4034 8.22852 11.362 8.22852 10.2761" stroke="#195F34" stroke-width="2" stroke-linecap="round" stroke-linejoin="round"/>
</g>
</svg>
