<svg width="18" height="18" viewBox="0 0 18 18" fill="none" xmlns="http://www.w3.org/2000/svg">
<g clip-path="url(#clip0_1_2)">
<path d="M17.25 2.25C16.5318 2.75661 15.7366 3.14409 14.895 3.3975C14.4433 2.87814 13.843 2.51002 13.1753 2.34295C12.5076 2.17587 11.8046 2.2179 11.1616 2.46334C10.5185 2.70879 9.96633 3.1458 9.57974 3.71529C9.19314 4.28478 8.99077 4.95926 9 5.6475V6.3975C7.68198 6.43168 6.37596 6.13936 5.19826 5.54659C4.02056 4.95381 3.00774 4.07898 2.25 3C2.25 3 -0.75 9.75 6 12.75C4.4554 13.7985 2.61537 14.3242 0.75 14.25C7.5 18 15.75 14.25 15.75 5.625C15.7493 5.41609 15.7292 5.2077 15.69 5.0025C16.4555 4.24762 16.9956 3.29454 17.25 2.25V2.25Z" stroke="#403F3F" stroke-width="2" stroke-linecap="round" stroke-linejoin="round"/>
</g>
<defs>
<clipPath id="clip0_1_2">
<rect width="18" height="18" fill="white"/>
</clipPath>
</defs>
</svg>
