<svg width="25" height="25" viewBox="0 0 25 25" fill="none" xmlns="http://www.w3.org/2000/svg">
<g opacity="0.8">
<path d="M4.13503 3.11111H20.5121C21.0551 3.11111 21.5758 3.32679 21.9597 3.7107C22.3436 4.09462 22.5593 4.61531 22.5593 5.15825V11.2997C22.5593 14.0143 21.4809 16.6178 19.5613 18.5374C17.6417 20.457 15.0383 21.5354 12.3236 21.5354C10.9794 21.5354 9.6484 21.2706 8.40655 20.7562C7.1647 20.2418 6.03633 19.4879 5.08585 18.5374C3.16629 16.6178 2.08789 14.0143 2.08789 11.2997V5.15825C2.08789 4.61531 2.30357 4.09462 2.68748 3.7107C3.0714 3.32679 3.59209 3.11111 4.13503 3.11111V3.11111Z" stroke="#195F34" stroke-width="2" stroke-linecap="round" stroke-linejoin="round"/>
<path d="M8.22852 10.2761L12.3228 14.3704L16.4171 10.2761" stroke="#195F34" stroke-width="2" stroke-linecap="round" stroke-linejoin="round"/>
</g>
</svg>
