<svg width="18" height="18" viewBox="0 0 18 18" fill="none" xmlns="http://www.w3.org/2000/svg">
<g clip-path="url(#clip0_1_10)">
<path d="M16.905 4.815C16.8159 4.45906 16.6345 4.13293 16.379 3.86955C16.1235 3.60618 15.8031 3.41489 15.45 3.315C14.16 3 9 3 9 3C9 3 3.84 3 2.55 3.345C2.19694 3.44489 1.87648 3.63618 1.62101 3.89955C1.36554 4.16293 1.18409 4.48906 1.095 4.845C0.858912 6.15417 0.743428 7.48223 0.750001 8.8125C0.741586 10.1528 0.857077 11.491 1.095 12.81C1.19322 13.1549 1.37873 13.4686 1.63361 13.7209C1.88849 13.9731 2.20412 14.1554 2.55 14.25C3.84 14.595 9 14.595 9 14.595C9 14.595 14.16 14.595 15.45 14.25C15.8031 14.1501 16.1235 13.9588 16.379 13.6954C16.6345 13.4321 16.8159 13.1059 16.905 12.75C17.1393 11.4507 17.2547 10.1328 17.25 8.8125C17.2584 7.47222 17.1429 6.13402 16.905 4.815V4.815Z" stroke="#403F3F" stroke-width="2" stroke-linecap="round" stroke-linejoin="round"/>
<path d="M7.3125 11.265L11.625 8.8125L7.3125 6.36V11.265Z" stroke="#403F3F" stroke-width="2" stroke-linecap="round" stroke-linejoin="round"/>
</g>
<defs>
<clipPath id="clip0_1_10">
<rect width="18" height="18" fill="white"/>
</clipPath>
</defs>
</svg>
